<svg width="17" height="17" viewBox="0 0 17 17" fill="none" xmlns="http://www.w3.org/2000/svg">
<path d="M14.2333 10.1503C13.8642 9.76664 13.4191 9.56149 12.9473 9.56149C12.4794 9.56149 12.0304 9.76284 11.6462 10.1465L10.4439 11.3432C10.345 11.2901 10.2461 11.2407 10.151 11.1913C10.014 11.1229 9.88467 11.0583 9.77433 10.9899C8.64819 10.2757 7.62476 9.34495 6.64319 8.14066C6.16762 7.54041 5.84804 7.03514 5.61596 6.52227C5.92793 6.23735 6.21708 5.94102 6.49861 5.6561C6.60514 5.54972 6.71167 5.43955 6.8182 5.33318C7.61715 4.53538 7.61715 3.50205 6.8182 2.70425L5.77955 1.66712C5.66161 1.54935 5.53987 1.42778 5.42573 1.30621C5.19746 1.07067 4.95777 0.827536 4.71047 0.599594C4.34143 0.234888 3.9001 0.0411377 3.43595 0.0411377C2.97179 0.0411377 2.52286 0.234888 2.1424 0.599594C2.1386 0.603393 2.1386 0.603393 2.13479 0.607192L0.841243 1.91026C0.35426 2.39653 0.076528 2.98918 0.0156552 3.6768C-0.0756541 4.78612 0.251537 5.81945 0.502638 6.49568C1.11898 8.15586 2.03968 9.69446 3.41312 11.3432C5.07952 13.3301 7.08452 14.8991 9.37486 16.0046C10.2499 16.4187 11.4179 16.9088 12.7229 16.9924C12.8028 16.9962 12.8865 17 12.9626 17C13.8414 17 14.5795 16.6847 15.1578 16.0578C15.1616 16.0502 15.1692 16.0464 15.173 16.0388C15.3708 15.7995 15.5991 15.5829 15.8388 15.3512C16.0024 15.1954 16.1698 15.0321 16.3334 14.8611C16.71 14.4698 16.9079 14.014 16.9079 13.5467C16.9079 13.0756 16.7062 12.6235 16.322 12.2436L14.2333 10.1503ZM15.5953 14.1507C15.5915 14.1507 15.5915 14.1545 15.5953 14.1507C15.4469 14.3103 15.2947 14.4546 15.1311 14.6142C14.8838 14.8497 14.6327 15.0967 14.3969 15.374C14.0126 15.7843 13.5599 15.978 12.9664 15.978C12.9093 15.978 12.8484 15.978 12.7913 15.9742C11.6614 15.9021 10.6113 15.4614 9.82379 15.0853C7.67042 14.0443 5.77955 12.5665 4.20827 10.6936C2.91092 9.1322 2.04348 7.68857 1.46899 6.13857C1.11517 5.19262 0.985816 4.4556 1.04288 3.76038C1.08093 3.3159 1.25214 2.94739 1.56791 2.63207L2.86527 1.33661C3.05169 1.16185 3.24953 1.06687 3.44356 1.06687C3.68324 1.06687 3.87728 1.21124 3.99902 1.33281C4.00283 1.33661 4.00663 1.3404 4.01044 1.3442C4.24251 1.56075 4.46318 1.78489 4.69526 2.02423C4.8132 2.1458 4.93494 2.26737 5.05669 2.39273L6.09533 3.42987C6.49861 3.83256 6.49861 4.20487 6.09533 4.60757C5.985 4.71774 5.87847 4.82791 5.76814 4.93428C5.44856 5.261 5.14419 5.56492 4.8132 5.86124C4.80559 5.86884 4.79798 5.87264 4.79417 5.88024C4.46698 6.20695 4.52786 6.52607 4.59634 6.74262C4.60014 6.75401 4.60395 6.76541 4.60775 6.77681C4.87787 7.43024 5.25833 8.04568 5.83662 8.7789L5.84043 8.78269C6.89048 10.0744 7.99761 11.0811 9.21887 11.8523C9.37486 11.9511 9.53465 12.0309 9.68683 12.1068C9.82379 12.1752 9.95315 12.2398 10.0635 12.3082C10.0787 12.3158 10.0939 12.3272 10.1091 12.3348C10.2385 12.3994 10.3602 12.4298 10.4858 12.4298C10.8016 12.4298 10.9994 12.2322 11.0641 12.1676L12.3652 10.8684C12.4946 10.7392 12.7 10.5834 12.9397 10.5834C13.1756 10.5834 13.3696 10.7316 13.4876 10.8608C13.4914 10.8646 13.4914 10.8646 13.4952 10.8684L15.5915 12.9616C15.9834 13.3491 15.9834 13.748 15.5953 14.1507Z" fill="#00B2FF"/>
</svg>
